victors.sfdir

StartChar: exclam
Encoding: 33 33 4
Width: 299
Flags: W
LayerCount: 2
Fore
SplineSet
200 0 m 1,0,-1
 100 0 l 1,1,-1
 100 100 l 1,2,-1
 200 100 l 1,3,-1
 200 0 l 1,0,-1
200 200 m 1,4,-1
 100 200 l 1,5,-1
 100 500 l 1,6,-1
 200 500 l 1,7,-1
 200 200 l 1,4,-1
EndSplineSet
EndChar

StartChar: dollar
Encoding: 36 36 7
Width: 700
Flags: W
LayerCount: 2
Fore
SplineSet
100 0 m 1,0,-1
 100 100 l 1,1,-1
 500 100 l 1,2,-1
 500 0 l 1,3,-1
 100 0 l 1,0,-1
200 400 m 1,4,-1
 200 500 l 1,5,-1
 600 500 l 1,6,-1
 600 400 l 1,7,-1
 200 400 l 1,4,-1
200 200 m 1,8,-1
 200 300 l 1,9,-1
 500 300 l 1,10,-1
 500 200 l 1,11,-1
 200 200 l 1,8,-1
600 100 m 1,12,-1
 500 100 l 1,13,-1
 500 200 l 1,14,-1
 600 200 l 1,15,-1
 600 100 l 1,12,-1
200 300 m 1,16,-1
 100 300 l 1,17,-1
 100 400 l 1,18,-1
 200 400 l 1,19,-1
 200 300 l 1,16,-1
400 500 m 1,20,-1
 300 500 l 1,21,-1
 300 600 l 1,22,-1
 400 600 l 1,23,-1
 400 500 l 1,20,-1
400 300 m 1,24,-1
 300 300 l 1,25,-1
 300 400 l 1,26,-1
 400 400 l 1,27,-1
 400 300 l 1,24,-1
400 100 m 1,28,-1
 300 100 l 1,29,-1
 300 200 l 1,30,-1
 400 200 l 1,31,-1
 400 100 l 1,28,-1
400 -99 m 1,32,-1
 300 -99 l 1,33,-1
 300 0 l 1,34,-1
 400 0 l 1,35,-1
 400 -99 l 1,32,-1
EndSplineSet
EndChar

StartChar: percent
Encoding: 37 37 8
Width: 699
Flags: W
LayerCount: 2
Fore
SplineSet
300 300 m 1,0,-1
 100 300 l 1,1,-1
 100 500 l 1,2,-1
 300 500 l 1,3,-1
 300 300 l 1,0,-1
600 0 m 1,4,-1
 400 0 l 1,5,-1
 400 200 l 1,6,-1
 600 200 l 1,7,-1
 600 0 l 1,4,-1
400 200 m 1,8,-1
 300 200 l 1,9,-1
 300 300 l 1,10,-1
 400 300 l 1,11,-1
 400 200 l 1,8,-1
500 300 m 1,12,-1
 400 300 l 1,13,-1
 400 500 l 1,14,-1
 500 500 l 1,15,-1
 500 300 l 1,12,-1
300 0 m 1,16,-1
 200 0 l 1,17,-1
 200 200 l 1,18,-1
 300 200 l 1,19,-1
 300 0 l 1,16,-1
EndSplineSet
EndChar

StartChar: ampersand
Encoding: 38 38 9
Width: 700
Flags: W
LayerCount: 2
Fore
SplineSet
200 400 m 1,0,-1
 200 500 l 1,1,-1
 399 500 l 1,2,-1
 399 400 l 1,3,-1
 200 400 l 1,0,-1
200 200 m 1,4,-1
 200 300 l 1,5,-1
 399 300 l 1,6,-1
 399 200 l 1,7,-1
 200 200 l 1,4,-1
200 0 m 1,8,-1
 200 100 l 1,9,-1
 600 100 l 1,10,-1
 600 0 l 1,11,-1
 200 0 l 1,8,-1
200 300 m 1,12,-1
 100 300 l 1,13,-1
 100 400 l 1,14,-1
 200 400 l 1,15,-1
 200 300 l 1,12,-1
200 100 m 1,16,-1
 100 100 l 1,17,-1
 100 200 l 1,18,-1
 200 200 l 1,19,-1
 200 100 l 1,16,-1
500 300 m 1,20,-1
 400 300 l 1,21,-1
 400 400 l 1,22,-1
 500 400 l 1,23,-1
 500 300 l 1,20,-1
600 100 m 1,24,-1
 500 100 l 1,25,-1
 500 200 l 1,26,-1
 600 200 l 1,27,-1
 600 100 l 1,24,-1
EndSplineSet
EndChar

StartChar: parenleft
Encoding: 40 40 11
Width: 399
Flags: W
LayerCount: 2
Fore
SplineSet
200 100 m 1,0,-1
 100 100 l 1,1,-1
 100 400 l 1,2,-1
 200 400 l 1,3,-1
 200 100 l 1,0,-1
300 400 m 1,4,-1
 200 400 l 1,5,-1
 200 500 l 1,6,-1
 300 500 l 1,7,-1
 300 400 l 1,4,-1
300 0 m 1,8,-1
 200 0 l 1,9,-1
 200 100 l 1,10,-1
 300 100 l 1,11,-1
 300 0 l 1,8,-1
EndSplineSet
EndChar

StartChar: asterisk
Encoding: 42 42 13
Width: 700
Flags: W
LayerCount: 2
Fore
SplineSet
400 200 m 1,0,-1
 300 200 l 1,1,-1
 300 700 l 1,2,-1
 400 700 l 1,3,-1
 400 200 l 1,0,-1
200 500 m 1,4,-1
 100 500 l 1,5,-1
 100 600 l 1,6,-1
 200 600 l 1,7,-1
 200 500 l 1,4,-1
200 300 m 1,8,-1
 100 300 l 1,9,-1
 100 400 l 1,10,-1
 200 400 l 1,11,-1
 200 300 l 1,8,-1
300 400 m 1,12,-1
 200 400 l 1,13,-1
 200 500 l 1,14,-1
 300 500 l 1,15,-1
 300 400 l 1,12,-1
500 400 m 1,16,-1
 400 400 l 1,17,-1
 400 500 l 1,18,-1
 500 500 l 1,19,-1
 500 400 l 1,16,-1
600 500 m 1,20,-1
 500 500 l 1,21,-1
 500 600 l 1,22,-1
 600 600 l 1,23,-1
 600 500 l 1,20,-1
600 300 m 1,24,-1
 500 300 l 1,25,-1
 500 400 l 1,26,-1
 600 400 l 1,27,-1
 600 300 l 1,24,-1
EndSplineSet
EndChar

StartChar: plus
Encoding: 43 43 14
Width: 700
Flags: W
LayerCount: 2
Fore
SplineSet
400 0 m 1,0,-1
 300 0 l 1,1,-1
 300 500 l 1,2,-1
 400 500 l 1,3,-1
 400 0 l 1,0,-1
100 200 m 1,4,-1
 100 300 l 1,5,-1
 300 300 l 1,6,-1
 300 200 l 1,7,-1
 100 200 l 1,4,-1
400 200 m 1,8,-1
 400 300 l 1,9,-1
 600 300 l 1,10,-1
 600 200 l 1,11,-1
 400 200 l 1,8,-1
EndSplineSet
EndChar

StartChar: comma
Encoding: 44 44 15
Width: 400
Flags: W
LayerCount: 2
Fore
SplineSet
200 -99 m 1,0,-1
 100 -99 l 1,1,-1
 100 0 l 1,2,-1
 200 0 l 1,3,-1
 200 -99 l 1,0,-1
300 0 m 1,4,-1
 200 0 l 1,5,-1
 200 100 l 1,6,-1
 300 100 l 1,7,-1
 300 0 l 1,4,-1
EndSplineSet
EndChar

StartChar: hyphen
Encoding: 45 45 16
AltUni2: 0000ad.ffffffff.0
Width: 500
Flags: W
LayerCount: 2
Fore
SplineSet
100 200 m 1,0,-1
 100 300 l 1,1,-1
 400 300 l 1,2,-1
 400 200 l 1,3,-1
 100 200 l 1,0,-1
EndSplineSet
EndChar

StartChar: period
Encoding: 46 46 17
Width: 300
Flags: W
LayerCount: 2
Fore
SplineSet
200 0 m 1,0,-1
 100 0 l 1,1,-1
 100 100 l 1,2,-1
 200 100 l 1,3,-1
 200 0 l 1,0,-1
EndSplineSet
EndChar

StartChar: slash
Encoding: 47 47 18
Width: 500
Flags: W
LayerCount: 2
Fore
SplineSet
300 200 m 1,0,-1
 200 200 l 1,1,-1
 200 300 l 1,2,-1
 300 300 l 1,3,-1
 300 200 l 1,0,-1
400 300 m 1,4,-1
 300 300 l 1,5,-1
 300 500 l 1,6,-1
 400 500 l 1,7,-1
 400 300 l 1,4,-1
200 0 m 1,8,-1
 100 0 l 1,9,-1
 100 200 l 1,10,-1
 200 200 l 1,11,-1
 200 0 l 1,8,-1
EndSplineSet
EndChar

StartChar: one
Encoding: 49 49 20
Width: 399
Flags: W
LayerCount: 2
Fore
SplineSet
300 0 m 1,0,-1
 200 0 l 1,1,-1
 200 500 l 1,2,-1
 300 500 l 1,3,-1
 300 0 l 1,0,-1
200 300 m 1,4,-1
 100 300 l 1,5,-1
 100 400 l 1,6,-1
 200 400 l 1,7,-1
 200 300 l 1,4,-1
EndSplineSet
EndChar

StartChar: two
Encoding: 50 50 21
Width: 699
Flags: W
LayerCount: 2
Fore
SplineSet
100 400 m 1,0,-1
 100 500 l 1,1,-1
 500 500 l 1,2,-1
 500 400 l 1,3,-1
 100 400 l 1,0,-1
100 0 m 1,4,-1
 100 100 l 1,5,-1
 600 100 l 1,6,-1
 600 0 l 1,7,-1
 100 0 l 1,4,-1
200 200 m 1,8,-1
 200 300 l 1,9,-1
 500 300 l 1,10,-1
 500 200 l 1,11,-1
 200 200 l 1,8,-1
600 300 m 1,12,-1
 500 300 l 1,13,-1
 500 400 l 1,14,-1
 600 400 l 1,15,-1
 600 300 l 1,12,-1
200 100 m 1,16,-1
 100 100 l 1,17,-1
 100 200 l 1,18,-1
 200 200 l 1,19,-1
 200 100 l 1,16,-1
EndSplineSet
EndChar

StartChar: seven
Encoding: 55 55 26
Width: 599
Flags: W
LayerCount: 2
Fore
SplineSet
100 400 m 1,0,-1
 100 500 l 1,1,-1
 500 500 l 1,2,-1
 500 400 l 1,3,-1
 100 400 l 1,0,-1
500 300 m 1,4,-1
 400 300 l 1,5,-1
 400 400 l 1,6,-1
 500 400 l 1,7,-1
 500 300 l 1,4,-1
400 200 m 1,8,-1
 300 200 l 1,9,-1
 300 300 l 1,10,-1
 400 300 l 1,11,-1
 400 200 l 1,8,-1
300 0 m 1,12,-1
 200 0 l 1,13,-1
 200 200 l 1,14,-1
 300 200 l 1,15,-1
 300 0 l 1,12,-1
EndSplineSet
EndChar

StartChar: colon
Encoding: 58 58 29
Width: 298
Flags: W
LayerCount: 2
Fore
SplineSet
200 100 m 1,0,-1
 100 100 l 1,1,-1
 100 200 l 1,2,-1
 200 200 l 1,3,-1
 200 100 l 1,0,-1
200 300 m 1,4,-1
 100 300 l 1,5,-1
 100 400 l 1,6,-1
 200 400 l 1,7,-1
 200 300 l 1,4,-1
EndSplineSet
EndChar

StartChar: semicolon
Encoding: 59 59 30
AltUni2: 00037e.ffffffff.0
Width: 400
Flags: W
LayerCount: 2
Fore
SplineSet
300 200 m 1,0,-1
 200 200 l 1,1,-1
 200 300 l 1,2,-1
 300 300 l 1,3,-1
 300 200 l 1,0,-1
200 -99 m 1,4,-1
 100 -99 l 1,5,-1
 100 0 l 1,6,-1
 200 0 l 1,7,-1
 200 -99 l 1,4,-1
300 0 m 1,8,-1
 200 0 l 1,9,-1
 200 100 l 1,10,-1
 300 100 l 1,11,-1
 300 0 l 1,8,-1
EndSplineSet
EndChar

StartChar: less
Encoding: 60 60 31
Width: 500
Flags: W
LayerCount: 2
Fore
SplineSet
400 400 m 1,0,-1
 300 400 l 1,1,-1
 300 500 l 1,2,-1
 400 500 l 1,3,-1
 400 400 l 1,0,-1
300 300 m 1,4,-1
 200 300 l 1,5,-1
 200 400 l 1,6,-1
 300 400 l 1,7,-1
 300 300 l 1,4,-1
400 0 m 1,8,-1
 300 0 l 1,9,-1
 300 100 l 1,10,-1
 400 100 l 1,11,-1
 400 0 l 1,8,-1
300 100 m 1,12,-1
 200 100 l 1,13,-1
 200 200 l 1,14,-1
 300 200 l 1,15,-1
 300 100 l 1,12,-1
200 200 m 1,16,-1
 100 200 l 1,17,-1
 100 300 l 1,18,-1
 200 300 l 1,19,-1
 200 200 l 1,16,-1
EndSplineSet
EndChar

StartChar: equal
Encoding: 61 61 32
Width: 598
Flags: W
LayerCount: 2
Fore
SplineSet
100 100 m 1,0,-1
 100 200 l 1,1,-1
 500 200 l 1,2,-1
 500 100 l 1,3,-1
 100 100 l 1,0,-1
100 300 m 1,4,-1
 100 400 l 1,5,-1
 500 400 l 1,6,-1
 500 300 l 1,7,-1
 100 300 l 1,4,-1
EndSplineSet
EndChar

StartChar: greater
Encoding: 62 62 33
Width: 497
Flags: W
LayerCount: 2
Fore
SplineSet
400 200 m 1,0,-1
 300 200 l 1,1,-1
 300 300 l 1,2,-1
 400 300 l 1,3,-1
 400 200 l 1,0,-1
300 100 m 1,4,-1
 200 100 l 1,5,-1
 200 200 l 1,6,-1
 300 200 l 1,7,-1
 300 100 l 1,4,-1
300 300 m 1,8,-1
 200 300 l 1,9,-1
 200 400 l 1,10,-1
 300 400 l 1,11,-1
 300 300 l 1,8,-1
200 400 m 1,12,-1
 100 400 l 1,13,-1
 100 500 l 1,14,-1
 200 500 l 1,15,-1
 200 400 l 1,12,-1
200 0 m 1,16,-1
 100 0 l 1,17,-1
 100 100 l 1,18,-1
 200 100 l 1,19,-1
 200 0 l 1,16,-1
EndSplineSet
EndChar

StartChar: at
Encoding: 64 64 35
Width: 698
Flags: W
LayerCount: 2
Fore
SplineSet
200 0 m 1,0,-1
 200 100 l 1,1,-1
 500 100 l 1,2,-1
 500 0 l 1,3,-1
 200 0 l 1,0,-1
200 400 m 1,4,-1
 200 500 l 1,5,-1
 500 500 l 1,6,-1
 500 400 l 1,7,-1
 200 400 l 1,4,-1
200 100 m 1,8,-1
 100 100 l 1,9,-1
 100 400 l 1,10,-1
 200 400 l 1,11,-1
 200 100 l 1,8,-1
600 200 m 1,12,-1
 500 200 l 1,13,-1
 500 400 l 1,14,-1
 600 400 l 1,15,-1
 600 200 l 1,12,-1
300 200 m 1,16,-1
 300 300 l 1,17,-1
 499 300 l 1,18,-1
 499 200 l 1,19,-1
 300 200 l 1,16,-1
400 300 m 1,20,-1
 300 300 l 1,21,-1
 300 400 l 1,22,-1
 400 400 l 1,23,-1
 400 300 l 1,20,-1
600 0 m 1,24,-1
 500 0 l 1,25,-1
 500 100 l 1,26,-1
 600 100 l 1,27,-1
 600 0 l 1,24,-1
EndSplineSet
EndChar

StartChar: A
Encoding: 65 65 36
Width: 699
Flags: W
LayerCount: 2
Fore
SplineSet
200 400 m 1,0,-1
 200 500 l 1,1,-1
 500 500 l 1,2,-1
 500 400 l 1,3,-1
 200 400 l 1,0,-1
200 200 m 1,4,-1
 200 300 l 1,5,-1
 500 300 l 1,6,-1
 500 200 l 1,7,-1
 200 200 l 1,4,-1
200 0 m 1,8,-1
 100 0 l 1,9,-1
 100 400 l 1,10,-1
 200 400 l 1,11,-1
 200 0 l 1,8,-1
600 0 m 1,12,-1
 500 0 l 1,13,-1
 500 400 l 1,14,-1
 600 400 l 1,15,-1
 600 0 l 1,12,-1
EndSplineSet
EndChar

StartChar: I
Encoding: 73 73 44
Width: 299
Flags: W
LayerCount: 2
Fore
SplineSet
200 0 m 1,0,-1
 100 0 l 1,1,-1
 100 500 l 1,2,-1
 200 500 l 1,3,-1
 200 0 l 1,0,-1
EndSplineSet
EndChar

StartChar: L
Encoding: 76 76 47
Width: 600
Flags: W
LayerCount: 2
Fore
SplineSet
200 0 m 1,0,-1
 100 0 l 1,1,-1
 100 500 l 1,2,-1
 200 500 l 1,3,-1
 200 0 l 1,0,-1
200 0 m 1,4,-1
 200 100 l 1,5,-1
 500 100 l 1,6,-1
 500 0 l 1,7,-1
 200 0 l 1,4,-1
EndSplineSet
EndChar

StartChar: P
Encoding: 80 80 51
Width: 698
Flags: W
LayerCount: 2
Fore
SplineSet
200 0 m 1,0,-1
 100 0 l 1,1,-1
 100 500 l 1,2,-1
 200 500 l 1,3,-1
 200 0 l 1,0,-1
200 400 m 1,4,-1
 200 500 l 1,5,-1
 500 500 l 1,6,-1
 500 400 l 1,7,-1
 200 400 l 1,4,-1
200 200 m 1,8,-1
 200 300 l 1,9,-1
 500 300 l 1,10,-1
 500 200 l 1,11,-1
 200 200 l 1,8,-1
600 300 m 1,12,-1
 500 300 l 1,13,-1
 500 400 l 1,14,-1
 600 400 l 1,15,-1
 600 300 l 1,12,-1
EndSplineSet
EndChar

StartChar: T
Encoding: 84 84 55
Width: 700
Flags: W
LayerCount: 2
Fore
SplineSet
100 400 m 1,0,-1
 100 500 l 1,1,-1
 600 500 l 1,2,-1
 600 400 l 1,3,-1
 100 400 l 1,0,-1
400 0 m 1,4,-1
 300 0 l 1,5,-1
 300 400 l 1,6,-1
 400 400 l 1,7,-1
 400 0 l 1,4,-1
EndSplineSet
EndChar

StartChar: V
Encoding: 86 86 57
Width: 700
Flags: W
LayerCount: 2
Fore
SplineSet
200 200 m 1,0,-1
 100 200 l 1,1,-1
 100 500 l 1,2,-1
 200 500 l 1,3,-1
 200 200 l 1,0,-1
300 100 m 1,4,-1
 200 100 l 1,5,-1
 200 200 l 1,6,-1
 300 200 l 1,7,-1
 300 100 l 1,4,-1
400 0 m 1,8,-1
 300 0 l 1,9,-1
 300 100 l 1,10,-1
 400 100 l 1,11,-1
 400 0 l 1,8,-1
500 100 m 1,12,-1
 400 100 l 1,13,-1
 400 200 l 1,14,-1
 500 200 l 1,15,-1
 500 100 l 1,12,-1
600 200 m 1,16,-1
 500 200 l 1,17,-1
 500 500 l 1,18,-1
 600 500 l 1,19,-1
 600 200 l 1,16,-1
EndSplineSet
EndChar

StartChar: W
Encoding: 87 87 58
Width: 899
Flags: W
LayerCount: 2
Fore
SplineSet
200 100 m 1,0,-1
 100 100 l 1,1,-1
 100 500 l 1,2,-1
 200 500 l 1,3,-1
 200 100 l 1,0,-1
200 0 m 1,4,-1
 200 100 l 1,5,-1
 399 100 l 1,6,-1
 399 0 l 1,7,-1
 200 0 l 1,4,-1
500 0 m 1,8,-1
 500 100 l 1,9,-1
 699 100 l 1,10,-1
 699 0 l 1,11,-1
 500 0 l 1,8,-1
800 100 m 1,12,-1
 700 100 l 1,13,-1
 700 500 l 1,14,-1
 800 500 l 1,15,-1
 800 100 l 1,12,-1
500 100 m 1,16,-1
 400 100 l 1,17,-1
 400 400 l 1,18,-1
 500 400 l 1,19,-1
 500 100 l 1,16,-1
EndSplineSet
EndChar

StartChar: X
Encoding: 88 88 59
Width: 700
Flags: W
LayerCount: 2
Fore
SplineSet
600 0 m 1,0,-1
 500 0 l 1,1,-1
 500 100 l 1,2,-1
 600 100 l 1,3,-1
 600 0 l 1,0,-1
500 100 m 1,4,-1
 400 100 l 1,5,-1
 400 200 l 1,6,-1
 500 200 l 1,7,-1
 500 100 l 1,4,-1
600 400 m 1,8,-1
 500 400 l 1,9,-1
 500 500 l 1,10,-1
 600 500 l 1,11,-1
 600 400 l 1,8,-1
500 300 m 1,12,-1
 400 300 l 1,13,-1
 400 400 l 1,14,-1
 500 400 l 1,15,-1
 500 300 l 1,12,-1
200 400 m 1,16,-1
 100 400 l 1,17,-1
 100 500 l 1,18,-1
 200 500 l 1,19,-1
 200 400 l 1,16,-1
300 300 m 1,20,-1
 200 300 l 1,21,-1
 200 400 l 1,22,-1
 300 400 l 1,23,-1
 300 300 l 1,20,-1
400 200 m 1,24,-1
 300 200 l 1,25,-1
 300 300 l 1,26,-1
 400 300 l 1,27,-1
 400 200 l 1,24,-1
300 100 m 1,28,-1
 200 100 l 1,29,-1
 200 200 l 1,30,-1
 300 200 l 1,31,-1
 300 100 l 1,28,-1
200 0 m 1,32,-1
 100 0 l 1,33,-1
 100 100 l 1,34,-1
 200 100 l 1,35,-1
 200 0 l 1,32,-1
EndSplineSet
EndChar

StartChar: Y
Encoding: 89 89 60
Width: 700
Flags: W
LayerCount: 2
Fore
SplineSet
400 0 m 1,0,-1
 300 0 l 1,1,-1
 300 300 l 1,2,-1
 400 300 l 1,3,-1
 400 0 l 1,0,-1
600 400 m 1,4,-1
 500 400 l 1,5,-1
 500 500 l 1,6,-1
 600 500 l 1,7,-1
 600 400 l 1,4,-1
500 300 m 1,8,-1
 400 300 l 1,9,-1
 400 400 l 1,10,-1
 500 400 l 1,11,-1
 500 300 l 1,8,-1
200 400 m 1,12,-1
 100 400 l 1,13,-1
 100 500 l 1,14,-1
 200 500 l 1,15,-1
 200 400 l 1,12,-1
300 300 m 1,16,-1
 200 300 l 1,17,-1
 200 400 l 1,18,-1
 300 400 l 1,19,-1
 300 300 l 1,16,-1
EndSplineSet
EndChar

StartChar: bracketleft
Encoding: 91 91 62
Width: 399
Flags: W
LayerCount: 2
Fore
SplineSet
200 0 m 1,0,-1
 100 0 l 1,1,-1
 100 500 l 1,2,-1
 200 500 l 1,3,-1
 200 0 l 1,0,-1
300 400 m 1,4,-1
 200 400 l 1,5,-1
 200 500 l 1,6,-1
 300 500 l 1,7,-1
 300 400 l 1,4,-1
300 0 m 1,8,-1
 200 0 l 1,9,-1
 200 100 l 1,10,-1
 300 100 l 1,11,-1
 300 0 l 1,8,-1
EndSplineSet
EndChar

StartChar: backslash
Encoding: 92 92 63
Width: 500
Flags: W
LayerCount: 2
Fore
SplineSet
300 200 m 1,0,-1
 200 200 l 1,1,-1
 200 300 l 1,2,-1
 300 300 l 1,3,-1
 300 200 l 1,0,-1
200 300 m 1,4,-1
 100 300 l 1,5,-1
 100 500 l 1,6,-1
 200 500 l 1,7,-1
 200 300 l 1,4,-1
400 0 m 1,8,-1
 300 0 l 1,9,-1
 300 200 l 1,10,-1
 400 200 l 1,11,-1
 400 0 l 1,8,-1
EndSplineSet
EndChar

StartChar: bracketright
Encoding: 93 93 64
Width: 399
Flags: W
LayerCount: 2
Fore
SplineSet
300 0 m 1,0,-1
 200 0 l 1,1,-1
 200 500 l 1,2,-1
 300 500 l 1,3,-1
 300 0 l 1,0,-1
200 400 m 1,4,-1
 100 400 l 1,5,-1
 100 500 l 1,6,-1
 200 500 l 1,7,-1
 200 400 l 1,4,-1
200 0 m 1,8,-1
 100 0 l 1,9,-1
 100 100 l 1,10,-1
 200 100 l 1,11,-1
 200 0 l 1,8,-1
EndSplineSet
EndChar

StartChar: asciicircum
Encoding: 94 94 65
Width: 600
Flags: W
LayerCount: 2
Fore
SplineSet
300 600 m 1,0,-1
 200 600 l 1,1,-1
 200 700 l 1,2,-1
 300 700 l 1,3,-1
 300 600 l 1,0,-1
200 500 m 1,4,-1
 100 500 l 1,5,-1
 100 600 l 1,6,-1
 200 600 l 1,7,-1
 200 500 l 1,4,-1
400 500 m 1,8,-1
 300 500 l 1,9,-1
 300 600 l 1,10,-1
 400 600 l 1,11,-1
 400 500 l 1,8,-1
EndSplineSet
EndChar

StartChar: underscore
Encoding: 95 95 66
Width: 500
Flags: W
LayerCount: 2
Fore
SplineSet
0 -100 m 1,0,-1
 0 0 l 1,1,-1
 500 0 l 1,2,-1
 500 -100 l 1,3,-1
 0 -100 l 1,0,-1
EndSplineSet
EndChar

StartChar: grave
Encoding: 96 96 67
Width: 400
Flags: W
LayerCount: 2
Fore
SplineSet
200 600 m 1,0,-1
 100 600 l 1,1,-1
 100 700 l 1,2,-1
 200 700 l 1,3,-1
 200 600 l 1,0,-1
300 500 m 1,4,-1
 200 500 l 1,5,-1
 200 600 l 1,6,-1
 300 600 l 1,7,-1
 300 500 l 1,4,-1
EndSplineSet
EndChar

StartChar: h
Encoding: 104 104 75
Width: 598
Flags: W
LayerCount: 2
Fore
SplineSet
200 0 m 1,0,-1
 100 0 l 1,1,-1
 100 500 l 1,2,-1
 200 500 l 1,3,-1
 200 0 l 1,0,-1
200 200 m 1,4,-1
 200 300 l 1,5,-1
 400 300 l 1,6,-1
 400 200 l 1,7,-1
 200 200 l 1,4,-1
500 0 m 1,8,-1
 400 0 l 1,9,-1
 400 500 l 1,10,-1
 500 500 l 1,11,-1
 500 0 l 1,8,-1
EndSplineSet
EndChar

StartChar: i
Encoding: 105 105 76
Width: 299
Flags: W
LayerCount: 2
Fore
SplineSet
200 0 m 1,0,-1
 100 0 l 1,1,-1
 100 500 l 1,2,-1
 200 500 l 1,3,-1
 200 0 l 1,0,-1
EndSplineSet
EndChar

StartChar: m
Encoding: 109 109 80
Width: 694
Flags: W
LayerCount: 2
Fore
SplineSet
200 0 m 1,0,-1
 100 0 l 1,1,-1
 100 500 l 1,2,-1
 200 500 l 1,3,-1
 200 0 l 1,0,-1
300 300 m 1,4,-1
 200 300 l 1,5,-1
 200 400 l 1,6,-1
 300 400 l 1,7,-1
 300 300 l 1,4,-1
400 200 m 1,8,-1
 300 200 l 1,9,-1
 300 300 l 1,10,-1
 400 300 l 1,11,-1
 400 200 l 1,8,-1
500 300 m 1,12,-1
 400 300 l 1,13,-1
 400 400 l 1,14,-1
 500 400 l 1,15,-1
 500 300 l 1,12,-1
600 0 m 1,16,-1
 500 0 l 1,17,-1
 500 500 l 1,18,-1
 600 500 l 1,19,-1
 600 0 l 1,16,-1
EndSplineSet
EndChar

StartChar: r
Encoding: 114 114 85
Width: 698
Flags: W
LayerCount: 2
Fore
SplineSet
200 0 m 1,0,-1
 100 0 l 1,1,-1
 100 500 l 1,2,-1
 200 500 l 1,3,-1
 200 0 l 1,0,-1
200 400 m 1,4,-1
 200 500 l 1,5,-1
 500 500 l 1,6,-1
 500 400 l 1,7,-1
 200 400 l 1,4,-1
200 200 m 1,8,-1
 200 300 l 1,9,-1
 500 300 l 1,10,-1
 500 200 l 1,11,-1
 200 200 l 1,8,-1
600 300 m 1,12,-1
 500 300 l 1,13,-1
 500 400 l 1,14,-1
 600 400 l 1,15,-1
 600 300 l 1,12,-1
600 0 m 1,16,-1
 500 0 l 1,17,-1
 500 200 l 1,18,-1
 600 200 l 1,19,-1
 600 0 l 1,16,-1
EndSplineSet
EndChar

StartChar: s
Encoding: 115 115 86
Width: 700
Flags: W
LayerCount: 2
Fore
SplineSet
100 0 m 1,0,-1
 100 100 l 1,1,-1
 500 100 l 1,2,-1
 500 0 l 1,3,-1
 100 0 l 1,0,-1
200 400 m 1,4,-1
 200 500 l 1,5,-1
 600 500 l 1,6,-1
 600 400 l 1,7,-1
 200 400 l 1,4,-1
200 200 m 1,8,-1
 200 300 l 1,9,-1
 500 300 l 1,10,-1
 500 200 l 1,11,-1
 200 200 l 1,8,-1
200 300 m 1,12,-1
 100 300 l 1,13,-1
 100 400 l 1,14,-1
 200 400 l 1,15,-1
 200 300 l 1,12,-1
600 100 m 1,16,-1
 500 100 l 1,17,-1
 500 200 l 1,18,-1
 600 200 l 1,19,-1
 600 100 l 1,16,-1
EndSplineSet
EndChar

StartChar: u
Encoding: 117 117 88
Width: 699
Flags: W
LayerCount: 2
Fore
SplineSet
200 100 m 1,0,-1
 100 100 l 1,1,-1
 100 500 l 1,2,-1
 200 500 l 1,3,-1
 200 100 l 1,0,-1
600 100 m 1,4,-1
 500 100 l 1,5,-1
 500 500 l 1,6,-1
 600 500 l 1,7,-1
 600 100 l 1,4,-1
200 0 m 1,8,-1
 200 100 l 1,9,-1
 500 100 l 1,10,-1
 500 0 l 1,11,-1
 200 0 l 1,8,-1
EndSplineSet
EndChar

StartChar: braceleft
Encoding: 123 123 94
Width: 684
Flags: W
LayerCount: 2
Fore
SplineSet
200 200 m 1,0,-1
 100 200 l 1,1,-1
 100 300 l 1,2,-1
 200 300 l 1,3,-1
 200 200 l 1,0,-1
300 300 m 1,4,-1
 200 300 l 1,5,-1
 200 500 l 1,6,-1
 300 500 l 1,7,-1
 300 300 l 1,4,-1
300 0 m 1,8,-1
 200 0 l 1,9,-1
 200 200 l 1,10,-1
 300 200 l 1,11,-1
 300 0 l 1,8,-1
400 400 m 1,12,-1
 300 400 l 1,13,-1
 300 500 l 1,14,-1
 400 500 l 1,15,-1
 400 400 l 1,12,-1
400 0 m 1,16,-1
 300 0 l 1,17,-1
 300 100 l 1,18,-1
 400 100 l 1,19,-1
 400 0 l 1,16,-1
EndSplineSet
EndChar

StartChar: bar
Encoding: 124 124 95
Width: 532
Flags: W
LayerCount: 2
Fore
SplineSet
200 0 m 1,0,-1
 100 0 l 1,1,-1
 100 500 l 1,2,-1
 200 500 l 1,3,-1
 200 0 l 1,0,-1
200 500 m 1,4,-1
 100 500 l 1,5,-1
 100 800 l 1,6,-1
 200 800 l 1,7,-1
 200 500 l 1,4,-1
EndSplineSet
EndChar

StartChar: asciitilde
Encoding: 126 126 97
Width: 1196
Flags: W
LayerCount: 2
Fore
SplineSet
200 600 m 1,0,-1
 100 600 l 1,1,-1
 100 700 l 1,2,-1
 200 700 l 1,3,-1
 200 600 l 1,0,-1
300 700 m 1,4,-1
 200 700 l 1,5,-1
 200 800 l 1,6,-1
 300 800 l 1,7,-1
 300 700 l 1,4,-1
400 600 m 1,8,-1
 300 600 l 1,9,-1
 300 700 l 1,10,-1
 400 700 l 1,11,-1
 400 600 l 1,8,-1
500 700 m 1,12,-1
 400 700 l 1,13,-1
 400 800 l 1,14,-1
 500 800 l 1,15,-1
 500 700 l 1,12,-1
EndSplineSet
EndChar

StartChar: cent
Encoding: 162 162 132
Width: 598
Flags: W
LayerCount: 2
Fore
SplineSet
200 500 m 1,0,-1
 200 600 l 1,1,-1
 500 600 l 1,2,-1
 500 500 l 1,3,-1
 200 500 l 1,0,-1
200 200 m 1,4,-1
 200 300 l 1,5,-1
 500 300 l 1,6,-1
 500 200 l 1,7,-1
 200 200 l 1,4,-1
400 600 m 1,8,-1
 300 600 l 1,9,-1
 300 700 l 1,10,-1
 400 700 l 1,11,-1
 400 600 l 1,8,-1
400 100 m 1,12,-1
 300 100 l 1,13,-1
 300 200 l 1,14,-1
 400 200 l 1,15,-1
 400 100 l 1,12,-1
200 300 m 1,16,-1
 100 300 l 1,17,-1
 100 500 l 1,18,-1
 200 500 l 1,19,-1
 200 300 l 1,16,-1
400 300 m 1,20,-1
 300 300 l 1,21,-1
 300 500 l 1,22,-1
 400 500 l 1,23,-1
 400 300 l 1,20,-1
EndSplineSet
EndChar

StartChar: sterling
Encoding: 163 163 133
Width: 598
Flags: W
LayerCount: 2
Fore
SplineSet
400 400 m 1,0,-1
 300 400 l 1,1,-1
 300 500 l 1,2,-1
 400 500 l 1,3,-1
 400 400 l 1,0,-1
300 500 m 1,4,-1
 200 500 l 1,5,-1
 200 600 l 1,6,-1
 300 600 l 1,7,-1
 300 500 l 1,4,-1
200 100 m 1,8,-1
 100 100 l 1,9,-1
 100 500 l 1,10,-1
 200 500 l 1,11,-1
 200 100 l 1,8,-1
0 0 m 1,12,-1
 0 100 l 1,13,-1
 400 100 l 1,14,-1
 400 0 l 1,15,-1
 0 0 l 1,12,-1
100 200 m 1,16,-1
 0 200 l 1,17,-1
 0 300 l 1,18,-1
 100 300 l 1,19,-1
 100 200 l 1,16,-1
201 200 m 1,20,-1
 201 300 l 1,21,-1
 400 300 l 1,22,-1
 400 200 l 1,23,-1
 201 200 l 1,20,-1
200 500 m 1,24,-1
 100 500 l 1,25,-1
 100 600 l 1,26,-1
 200 600 l 1,27,-1
 200 500 l 1,24,-1
EndSplineSet
EndChar

StartChar: dieresis
Encoding: 168 168 142
Width: 499
Flags: W
LayerCount: 2
Fore
SplineSet
200 600 m 1,0,-1
 100 600 l 1,1,-1
 100 700 l 1,2,-1
 200 700 l 1,3,-1
 200 600 l 1,0,-1
400 600 m 1,4,-1
 300 600 l 1,5,-1
 300 700 l 1,6,-1
 400 700 l 1,7,-1
 400 600 l 1,4,-1
EndSplineSet
EndChar

StartChar: copyright
Encoding: 169 169 139
Width: 899
Flags: W
LayerCount: 2
Fore
SplineSet
800 100 m 1,0,-1
 700 100 l 1,1,-1
 700 600 l 1,2,-1
 800 600 l 1,3,-1
 800 100 l 1,0,-1
200 100 m 1,4,-1
 100 100 l 1,5,-1
 100 600 l 1,6,-1
 200 600 l 1,7,-1
 200 100 l 1,4,-1
200 0 m 1,8,-1
 200 100 l 1,9,-1
 700 100 l 1,10,-1
 700 0 l 1,11,-1
 200 0 l 1,8,-1
200 600 m 1,12,-1
 200 700 l 1,13,-1
 700 700 l 1,14,-1
 700 600 l 1,15,-1
 200 600 l 1,12,-1
300 400 m 1,16,-1
 300 500 l 1,17,-1
 600 500 l 1,18,-1
 600 400 l 1,19,-1
 300 400 l 1,16,-1
300 200 m 1,20,-1
 300 300 l 1,21,-1
 600 300 l 1,22,-1
 600 200 l 1,23,-1
 300 200 l 1,20,-1
400 300 m 1,24,-1
 300 300 l 1,25,-1
 300 400 l 1,26,-1
 400 400 l 1,27,-1
 400 300 l 1,24,-1
EndSplineSet
EndChar

StartChar: degree
Encoding: 176 176 131
Width: 599
Flags: W
LayerCount: 2
Fore
SplineSet
500 500 m 1,0,-1
 400 500 l 1,1,-1
 400 700 l 1,2,-1
 500 700 l 1,3,-1
 500 500 l 1,0,-1
200 500 m 1,4,-1
 100 500 l 1,5,-1
 100 700 l 1,6,-1
 200 700 l 1,7,-1
 200 500 l 1,4,-1
200 400 m 1,8,-1
 200 500 l 1,9,-1
 399 500 l 1,10,-1
 399 400 l 1,11,-1
 200 400 l 1,8,-1
200 700 m 1,12,-1
 200 800 l 1,13,-1
 399 800 l 1,14,-1
 399 700 l 1,15,-1
 200 700 l 1,12,-1
EndSplineSet
EndChar

StartChar: plusminus
Encoding: 177 177 147
Width: 499
Flags: W
LayerCount: 2
Fore
SplineSet
300 300 m 1,0,-1
 200 300 l 1,1,-1
 200 600 l 1,2,-1
 300 600 l 1,3,-1
 300 300 l 1,0,-1
200 400 m 1,4,-1
 100 400 l 1,5,-1
 100 500 l 1,6,-1
 200 500 l 1,7,-1
 200 400 l 1,4,-1
400 400 m 1,8,-1
 300 400 l 1,9,-1
 300 500 l 1,10,-1
 400 500 l 1,11,-1
 400 400 l 1,8,-1
100 100 m 1,12,-1
 100 200 l 1,13,-1
 400 200 l 1,14,-1
 400 100 l 1,15,-1
 100 100 l 1,12,-1
EndSplineSet
EndChar

StartChar: paragraph
Encoding: 182 182 136
Width: 698
Flags: W
LayerCount: 2
Fore
SplineSet
100 500 m 1,0,-1
 200 500 l 1,1,-1
 200 400 l 1,2,-1
 100 400 l 1,3,-1
 100 500 l 1,0,-1
200 400 m 1,4,-1
 200 500 l 1,5,-1
 399 500 l 1,6,-1
 399 400 l 1,7,-1
 200 400 l 1,4,-1
200 500 m 1,8,-1
 200 600 l 1,9,-1
 500 600 l 1,10,-1
 500 500 l 1,11,-1
 200 500 l 1,8,-1
200 300 m 1,12,-1
 200 400 l 1,13,-1
 500 400 l 1,14,-1
 500 300 l 1,15,-1
 200 300 l 1,12,-1
600 0 m 1,16,-1
 500 0 l 1,17,-1
 500 600 l 1,18,-1
 600 600 l 1,19,-1
 600 0 l 1,16,-1
400 0 m 1,20,-1
 300 0 l 1,21,-1
 300 300 l 1,22,-1
 400 300 l 1,23,-1
 400 0 l 1,20,-1
EndSplineSet
EndChar

StartChar: AE
Encoding: 198 198 144
Width: 798
Flags: W
LayerCount: 2
Fore
SplineSet
200 0 m 1,0,-1
 100 0 l 1,1,-1
 100 400 l 1,2,-1
 200 400 l 1,3,-1
 200 0 l 1,0,-1
200 400 m 1,4,-1
 200 500 l 1,5,-1
 399 500 l 1,6,-1
 399 400 l 1,7,-1
 200 400 l 1,4,-1
200 200 m 1,8,-1
 200 300 l 1,9,-1
 399 300 l 1,10,-1
 399 200 l 1,11,-1
 200 200 l 1,8,-1
500 0 m 1,12,-1
 400 0 l 1,13,-1
 400 500 l 1,14,-1
 500 500 l 1,15,-1
 500 0 l 1,12,-1
500 400 m 1,16,-1
 500 500 l 1,17,-1
 699 500 l 1,18,-1
 699 400 l 1,19,-1
 500 400 l 1,16,-1
500 0 m 1,20,-1
 500 100 l 1,21,-1
 699 100 l 1,22,-1
 699 0 l 1,23,-1
 500 0 l 1,20,-1
600 200 m 1,24,-1
 500 200 l 1,25,-1
 500 300 l 1,26,-1
 600 300 l 1,27,-1
 600 200 l 1,24,-1
EndSplineSet
EndChar

StartChar: Ntilde
Encoding: 209 209 102
Width: 698
Flags: W
LayerCount: 2
Fore
SplineSet
200 0 m 1,0,-1
 100 0 l 1,1,-1
 100 500 l 1,2,-1
 200 500 l 1,3,-1
 200 0 l 1,0,-1
300 300 m 1,4,-1
 200 300 l 1,5,-1
 200 400 l 1,6,-1
 300 400 l 1,7,-1
 300 300 l 1,4,-1
500 100 m 1,8,-1
 400 100 l 1,9,-1
 400 200 l 1,10,-1
 500 200 l 1,11,-1
 500 100 l 1,8,-1
400 200 m 1,12,-1
 300 200 l 1,13,-1
 300 300 l 1,14,-1
 400 300 l 1,15,-1
 400 200 l 1,12,-1
600 0 m 1,16,-1
 500 0 l 1,17,-1
 500 500 l 1,18,-1
 600 500 l 1,19,-1
 600 0 l 1,16,-1
250 600 m 1,20,-1
 150 600 l 1,21,-1
 150 700 l 1,22,-1
 250 700 l 1,23,-1
 250 600 l 1,20,-1
350 700 m 1,24,-1
 250 700 l 1,25,-1
 250 800 l 1,26,-1
 350 800 l 1,27,-1
 350 700 l 1,24,-1
450 600 m 1,28,-1
 350 600 l 1,29,-1
 350 700 l 1,30,-1
 450 700 l 1,31,-1
 450 600 l 1,28,-1
550 700 m 1,32,-1
 450 700 l 1,33,-1
 450 800 l 1,34,-1
 550 800 l 1,35,-1
 550 700 l 1,32,-1
EndSplineSet
EndChar

StartChar: germandbls
Encoding: 223 223 137
Width: 1251
Flags: W
LayerCount: 2
Fore
SplineSet
200 0 m 1,0,-1
 100 0 l 1,1,-1
 100 400 l 1,2,-1
 200 400 l 1,3,-1
 200 0 l 1,0,-1
200 400 m 1,4,-1
 200 500 l 1,5,-1
 500 500 l 1,6,-1
 500 400 l 1,7,-1
 200 400 l 1,4,-1
300 200 m 1,8,-1
 300 300 l 1,9,-1
 499 300 l 1,10,-1
 499 200 l 1,11,-1
 300 200 l 1,8,-1
600 300 m 1,12,-1
 500 300 l 1,13,-1
 500 400 l 1,14,-1
 600 400 l 1,15,-1
 600 300 l 1,12,-1
600 100 m 1,16,-1
 500 100 l 1,17,-1
 500 200 l 1,18,-1
 600 200 l 1,19,-1
 600 100 l 1,16,-1
300 0 m 1,20,-1
 300 100 l 1,21,-1
 499 100 l 1,22,-1
 499 0 l 1,23,-1
 300 0 l 1,20,-1
EndSplineSet
EndChar

StartChar: adieresis
Encoding: 228 228 108
Width: 699
Flags: W
LayerCount: 2
Fore
SplineSet
200 400 m 1,0,-1
 200 500 l 1,1,-1
 500 500 l 1,2,-1
 500 400 l 1,3,-1
 200 400 l 1,0,-1
200 200 m 1,4,-1
 200 300 l 1,5,-1
 500 300 l 1,6,-1
 500 200 l 1,7,-1
 200 200 l 1,4,-1
200 0 m 1,8,-1
 100 0 l 1,9,-1
 100 400 l 1,10,-1
 200 400 l 1,11,-1
 200 0 l 1,8,-1
600 0 m 1,12,-1
 500 0 l 1,13,-1
 500 400 l 1,14,-1
 600 400 l 1,15,-1
 600 0 l 1,12,-1
500 600 m 1,16,-1
 400 600 l 1,17,-1
 400 700 l 1,18,-1
 500 700 l 1,19,-1
 500 600 l 1,16,-1
300 600 m 1,20,-1
 200 600 l 1,21,-1
 200 700 l 1,22,-1
 300 700 l 1,23,-1
 300 600 l 1,20,-1
EndSplineSet
EndChar

StartChar: eacute
Encoding: 233 233 112
Width: 598
Flags: W
LayerCount: 2
Fore
SplineSet
200 0 m 1,0,-1
 100 0 l 1,1,-1
 100 500 l 1,2,-1
 200 500 l 1,3,-1
 200 0 l 1,0,-1
200 200 m 1,4,-1
 200 300 l 1,5,-1
 399 300 l 1,6,-1
 399 200 l 1,7,-1
 200 200 l 1,4,-1
200 400 m 1,8,-1
 200 500 l 1,9,-1
 500 500 l 1,10,-1
 500 400 l 1,11,-1
 200 400 l 1,8,-1
200 0 m 1,12,-1
 200 100 l 1,13,-1
 500 100 l 1,14,-1
 500 0 l 1,15,-1
 200 0 l 1,12,-1
300 600 m 1,16,-1
 200 600 l 1,17,-1
 200 700 l 1,18,-1
 300 700 l 1,19,-1
 300 600 l 1,16,-1
400 700 m 1,20,-1
 300 700 l 1,21,-1
 300 800 l 1,22,-1
 400 800 l 1,23,-1
 400 700 l 1,20,-1
EndSplineSet
EndChar

StartChar: ecircumflex
Encoding: 234 234 114
Width: 598
Flags: W
LayerCount: 2
Fore
SplineSet
200 0 m 1,0,-1
 100 0 l 1,1,-1
 100 500 l 1,2,-1
 200 500 l 1,3,-1
 200 0 l 1,0,-1
200 200 m 1,4,-1
 200 300 l 1,5,-1
 399 300 l 1,6,-1
 399 200 l 1,7,-1
 200 200 l 1,4,-1
200 400 m 1,8,-1
 200 500 l 1,9,-1
 500 500 l 1,10,-1
 500 400 l 1,11,-1
 200 400 l 1,8,-1
200 0 m 1,12,-1
 200 100 l 1,13,-1
 500 100 l 1,14,-1
 500 0 l 1,15,-1
 200 0 l 1,12,-1
248 600 m 1,16,-1
 148 600 l 1,17,-1
 148 700 l 1,18,-1
 248 700 l 1,19,-1
 248 600 l 1,16,-1
348 700 m 1,20,-1
 248 700 l 1,21,-1
 248 800 l 1,22,-1
 348 800 l 1,23,-1
 348 700 l 1,20,-1
448 600 m 1,24,-1
 348 600 l 1,25,-1
 348 700 l 1,26,-1
 448 700 l 1,27,-1
 448 600 l 1,24,-1
EndSplineSet
EndChar

StartChar: igrave
Encoding: 236 236 117
Width: 299
Flags: W
LayerCount: 2
Fore
SplineSet
200 0 m 1,0,-1
 100 0 l 1,1,-1
 100 500 l 1,2,-1
 200 500 l 1,3,-1
 200 0 l 1,0,-1
0 800 m 1,4,-1
 100 800 l 1,5,-1
 100 700 l 1,6,-1
 0 700 l 1,7,-1
 0 800 l 1,4,-1
100 700 m 1,8,-1
 200 700 l 1,9,-1
 200 600 l 1,10,-1
 100 600 l 1,11,-1
 100 700 l 1,8,-1
EndSplineSet
EndChar

StartChar: iacute
Encoding: 237 237 116
Width: 299
Flags: W
LayerCount: 2
Fore
SplineSet
200 0 m 1,0,-1
 100 0 l 1,1,-1
 100 500 l 1,2,-1
 200 500 l 1,3,-1
 200 0 l 1,0,-1
300 700 m 1,4,-1
 200 700 l 1,5,-1
 200 800 l 1,6,-1
 300 800 l 1,7,-1
 300 700 l 1,4,-1
200 600 m 1,8,-1
 100 600 l 1,9,-1
 100 700 l 1,10,-1
 200 700 l 1,11,-1
 200 600 l 1,8,-1
EndSplineSet
EndChar

StartChar: icircumflex
Encoding: 238 238 118
Width: 299
Flags: W
LayerCount: 2
Fore
SplineSet
200 0 m 1,0,-1
 100 0 l 1,1,-1
 100 500 l 1,2,-1
 200 500 l 1,3,-1
 200 0 l 1,0,-1
100 800 m 1,4,-1
 200 800 l 1,5,-1
 200 700 l 1,6,-1
 100 700 l 1,7,-1
 100 800 l 1,4,-1
200 700 m 1,8,-1
 300 700 l 1,9,-1
 300 600 l 1,10,-1
 200 600 l 1,11,-1
 200 700 l 1,8,-1
0 700 m 1,12,-1
 100 700 l 1,13,-1
 100 600 l 1,14,-1
 0 600 l 1,15,-1
 0 700 l 1,12,-1
EndSplineSet
EndChar

StartChar: idieresis
Encoding: 239 239 119
Width: 299
Flags: W
LayerCount: 2
Fore
SplineSet
200 0 m 1,0,-1
 100 0 l 1,1,-1
 100 500 l 1,2,-1
 200 500 l 1,3,-1
 200 0 l 1,0,-1
200 700 m 1,4,-1
 300 700 l 1,5,-1
 300 600 l 1,6,-1
 200 600 l 1,7,-1
 200 700 l 1,4,-1
0 700 m 1,8,-1
 100 700 l 1,9,-1
 100 600 l 1,10,-1
 0 600 l 1,11,-1
 0 700 l 1,8,-1
EndSplineSet
EndChar

StartChar: ocircumflex
Encoding: 244 244 123
Width: 699
Flags: W
LayerCount: 2
Fore
SplineSet
200 100 m 1,0,-1
 100 100 l 1,1,-1
 100 400 l 1,2,-1
 200 400 l 1,3,-1
 200 100 l 1,0,-1
600 100 m 1,4,-1
 500 100 l 1,5,-1
 500 400 l 1,6,-1
 600 400 l 1,7,-1
 600 100 l 1,4,-1
200 400 m 1,8,-1
 200 500 l 1,9,-1
 500 500 l 1,10,-1
 500 400 l 1,11,-1
 200 400 l 1,8,-1
200 0 m 1,12,-1
 200 100 l 1,13,-1
 500 100 l 1,14,-1
 500 0 l 1,15,-1
 200 0 l 1,12,-1
300 600 m 1,16,-1
 200 600 l 1,17,-1
 200 700 l 1,18,-1
 300 700 l 1,19,-1
 300 600 l 1,16,-1
500 600 m 1,20,-1
 400 600 l 1,21,-1
 400 700 l 1,22,-1
 500 700 l 1,23,-1
 500 600 l 1,20,-1
400 700 m 1,24,-1
 300 700 l 1,25,-1
 300 800 l 1,26,-1
 400 800 l 1,27,-1
 400 700 l 1,24,-1
EndSplineSet
EndChar

StartChar: otilde
Encoding: 245 245 125
Width: 699
Flags: W
LayerCount: 2
Fore
SplineSet
200 100 m 1,0,-1
 100 100 l 1,1,-1
 100 400 l 1,2,-1
 200 400 l 1,3,-1
 200 100 l 1,0,-1
600 100 m 1,4,-1
 500 100 l 1,5,-1
 500 400 l 1,6,-1
 600 400 l 1,7,-1
 600 100 l 1,4,-1
200 400 m 1,8,-1
 200 500 l 1,9,-1
 500 500 l 1,10,-1
 500 400 l 1,11,-1
 200 400 l 1,8,-1
200 0 m 1,12,-1
 200 100 l 1,13,-1
 500 100 l 1,14,-1
 500 0 l 1,15,-1
 200 0 l 1,12,-1
252 600 m 1,16,-1
 152 600 l 1,17,-1
 152 700 l 1,18,-1
 252 700 l 1,19,-1
 252 600 l 1,16,-1
452 600 m 1,20,-1
 352 600 l 1,21,-1
 352 700 l 1,22,-1
 452 700 l 1,23,-1
 452 600 l 1,20,-1
352 700 m 1,24,-1
 252 700 l 1,25,-1
 252 800 l 1,26,-1
 352 800 l 1,27,-1
 352 700 l 1,24,-1
552 700 m 1,28,-1
 452 700 l 1,29,-1
 452 800 l 1,30,-1
 552 800 l 1,31,-1
 552 700 l 1,28,-1
EndSplineSet
EndChar

StartChar: quoteleft
Encoding: 8216 8216 181
Width: 299
Flags: W
LayerCount: 2
Fore
SplineSet
200 400 m 1,0,-1
 100 400 l 1,1,-1
 100 600 l 1,2,-1
 200 600 l 1,3,-1
 200 400 l 1,0,-1
EndSplineSet
EndChar

StartChar: quotedblleft
Encoding: 8220 8220 179
Width: 499
Flags: W
LayerCount: 2
Fore
SplineSet
200 400 m 1,0,-1
 100 400 l 1,1,-1
 100 600 l 1,2,-1
 200 600 l 1,3,-1
 200 400 l 1,0,-1
400 400 m 1,4,-1
 300 400 l 1,5,-1
 300 600 l 1,6,-1
 400 600 l 1,7,-1
 400 400 l 1,4,-1
EndSplineSet
EndChar

StartChar: bullet
Encoding: 8226 8226 135
Width: 717
Flags: W
LayerCount: 2
Fore
SplineSet
200 300 m 1,0,-1
 100 300 l 1,1,-1
 100 600 l 1,2,-1
 200 600 l 1,3,-1
 200 300 l 1,0,-1
600 300 m 1,4,-1
 500 300 l 1,5,-1
 500 600 l 1,6,-1
 600 600 l 1,7,-1
 600 300 l 1,4,-1
200 600 m 1,8,-1
 200 700 l 1,9,-1
 500 700 l 1,10,-1
 500 600 l 1,11,-1
 200 600 l 1,8,-1
200 200 m 1,12,-1
 200 300 l 1,13,-1
 500 300 l 1,14,-1
 500 200 l 1,15,-1
 200 200 l 1,12,-1
300 300 m 1,16,-1
 200 300 l 1,17,-1
 200 600 l 1,18,-1
 300 600 l 1,19,-1
 300 300 l 1,16,-1
400 300 m 1,20,-1
 300 300 l 1,21,-1
 300 600 l 1,22,-1
 400 600 l 1,23,-1
 400 300 l 1,20,-1
500 300 m 1,24,-1
 400 300 l 1,25,-1
 400 600 l 1,26,-1
 500 600 l 1,27,-1
 500 300 l 1,24,-1
EndSplineSet
EndChar

StartChar: trademark
Encoding: 8482 8482 140
Width: 1100
Flags: W
LayerCount: 2
Fore
SplineSet
300 400 m 1,0,-1
 200 400 l 1,1,-1
 200 600 l 1,2,-1
 300 600 l 1,3,-1
 300 400 l 1,0,-1
100 600 m 1,4,-1
 100 700 l 1,5,-1
 400 700 l 1,6,-1
 400 600 l 1,7,-1
 100 600 l 1,4,-1
600 400 m 1,8,-1
 500 400 l 1,9,-1
 500 700 l 1,10,-1
 600 700 l 1,11,-1
 600 400 l 1,8,-1
1000 400 m 1,12,-1
 900 400 l 1,13,-1
 900 700 l 1,14,-1
 1000 700 l 1,15,-1
 1000 400 l 1,12,-1
700 600 m 1,16,-1
 600 600 l 1,17,-1
 600 700 l 1,18,-1
 700 700 l 1,19,-1
 700 600 l 1,16,-1
800 500 m 1,20,-1
 700 500 l 1,21,-1
 700 600 l 1,22,-1
 800 600 l 1,23,-1
 800 500 l 1,20,-1
900 600 m 1,24,-1
 800 600 l 1,25,-1
 800 700 l 1,26,-1
 900 700 l 1,27,-1
 900 600 l 1,24,-1
EndSplineSet
EndChar

StartChar: infinity
Encoding: 8734 8734 146
Width: 899
Flags: W
LayerCount: 2
Fore
SplineSet
200 500 m 1,0,-1
 200 600 l 1,1,-1
 399 600 l 1,2,-1
 399 500 l 1,3,-1
 200 500 l 1,0,-1
200 200 m 1,4,-1
 200 300 l 1,5,-1
 399 300 l 1,6,-1
 399 200 l 1,7,-1
 200 200 l 1,4,-1
500 500 m 1,8,-1
 500 600 l 1,9,-1
 699 600 l 1,10,-1
 699 500 l 1,11,-1
 500 500 l 1,8,-1
500 200 m 1,12,-1
 500 300 l 1,13,-1
 699 300 l 1,14,-1
 699 200 l 1,15,-1
 500 200 l 1,12,-1
200 300 m 1,16,-1
 100 300 l 1,17,-1
 100 500 l 1,18,-1
 200 500 l 1,19,-1
 200 300 l 1,16,-1
500 300 m 1,20,-1
 400 300 l 1,21,-1
 400 500 l 1,22,-1
 500 500 l 1,23,-1
 500 300 l 1,20,-1
800 300 m 1,24,-1
 700 300 l 1,25,-1
 700 500 l 1,26,-1
 800 500 l 1,27,-1
 800 300 l 1,24,-1
EndSplineSet
EndChar

StartChar: greaterequal
Encoding: 8805 8805 149
Width: 599
Flags: W
LayerCount: 2
Fore
SplineSet
200 700 m 1,0,-1
 300 700 l 1,1,-1
 300 600 l 1,2,-1
 200 600 l 1,3,-1
 200 700 l 1,0,-1
300 600 m 1,4,-1
 400 600 l 1,5,-1
 400 500 l 1,6,-1
 300 500 l 1,7,-1
 300 600 l 1,4,-1
200 300 m 1,8,-1
 300 300 l 1,9,-1
 300 200 l 1,10,-1
 200 200 l 1,11,-1
 200 300 l 1,8,-1
300 400 m 1,12,-1
 400 400 l 1,13,-1
 400 300 l 1,14,-1
 300 300 l 1,15,-1
 300 400 l 1,12,-1
400 500 m 1,16,-1
 500 500 l 1,17,-1
 500 400 l 1,18,-1
 400 400 l 1,19,-1
 400 500 l 1,16,-1
100 0 m 1,20,-1
 100 100 l 1,21,-1
 500 100 l 1,22,-1
 500 0 l 1,23,-1
 100 0 l 1,20,-1
EndSplineSet
EndChar

StartChar: .notdef
Encoding: 65536 -1 0
Width: 1536
Flags: W
LayerCount: 2
Fore
SplineSet
256 0 m 1,0,-1
 256 1280 l 1,1,-1
 1280 1280 l 1,2,-1
 1280 0 l 1,3,-1
 256 0 l 1,0,-1
288 32 m 1,4,-1
 1248 32 l 1,5,-1
 1248 1248 l 1,6,-1
 288 1248 l 1,7,-1
 288 32 l 1,4,-1
EndSplineSet
EndChar
